<svg xmlns="http://www.w3.org/2000/svg" width="21.09" height="24.103" viewBox="0 0 21.09 24.103">
  <path id="Icon_awesome-bell" data-name="Icon awesome-bell" d="M10.545,24.1a3.012,3.012,0,0,0,3.011-3.013H7.534A3.012,3.012,0,0,0,10.545,24.1Zm10.14-7.048c-.91-.977-2.611-2.447-2.611-7.263a7.434,7.434,0,0,0-6.023-7.3V1.506a1.505,1.505,0,1,0-3.011,0v.981a7.434,7.434,0,0,0-6.023,7.3c0,4.816-1.7,6.286-2.611,7.263A1.471,1.471,0,0,0,0,18.077a1.508,1.508,0,0,0,1.511,1.506H19.579a1.507,1.507,0,0,0,1.511-1.506,1.47,1.47,0,0,0-.405-1.022Z" fill="#615f5d"/>
</svg>
