<svg xmlns="http://www.w3.org/2000/svg" width="24.103" height="24.103" viewBox="0 0 24.103 24.103">
  <path id="Icon_material-shopping-cart" data-name="Icon material-shopping-cart" d="M8.731,22.282a2.41,2.41,0,1,0,2.41,2.41A2.407,2.407,0,0,0,8.731,22.282ZM1.5,3V5.41H3.91l4.338,9.147L6.622,17.51a2.33,2.33,0,0,0-.3,1.157,2.417,2.417,0,0,0,2.41,2.41H23.192v-2.41H9.237a.3.3,0,0,1-.3-.3l.036-.145,1.085-1.964h8.978a2.4,2.4,0,0,0,2.109-1.241l4.314-7.821a1.177,1.177,0,0,0,.145-.578A1.209,1.209,0,0,0,24.4,5.41H6.574L5.441,3ZM20.782,22.282a2.41,2.41,0,1,0,2.41,2.41A2.407,2.407,0,0,0,20.782,22.282Z" transform="translate(-1.5 -3)" fill="#615f5d"/>
</svg>
