<svg xmlns="http://www.w3.org/2000/svg" width="19.506" height="13.004" viewBox="0 0 19.506 13.004">
  <path id="Icon_awesome-eye" data-name="Icon awesome-eye" d="M19.388,10.508A10.862,10.862,0,0,0,9.753,4.5,10.863,10.863,0,0,0,.118,10.508a1.1,1.1,0,0,0,0,.989A10.862,10.862,0,0,0,9.753,17.5,10.863,10.863,0,0,0,19.388,11.5,1.1,1.1,0,0,0,19.388,10.508ZM9.753,15.879A4.877,4.877,0,1,1,14.63,11,4.877,4.877,0,0,1,9.753,15.879Zm0-8.128a3.228,3.228,0,0,0-.857.128A1.62,1.62,0,0,1,6.63,10.145,3.244,3.244,0,1,0,9.753,7.751Z" transform="translate(0 -4.5)" fill="#707070"/>
</svg>
