<svg xmlns="http://www.w3.org/2000/svg" width="785.272" height="401.063" viewBox="0 0 785.272 401.063">
  <g id="Group_36" data-name="Group 36" transform="translate(-208.39 -347.55)">
    <path id="Path_1" data-name="Path 1" d="M338.638,747.643s-88.782-95.324-15.014-198.526c65.452-91.567,141.762-85.308,197.749-48.149,23.846,15.827,92.6,1.951,151.111-91.223,79.8-127.063,356.409-50,305.974,145.491-24.407,94.6,74.28,98.042,24,192.607Z" transform="translate(-60.145)" fill="#ebf3fa"/>
    <g id="Group_1" data-name="Group 1" transform="translate(403.796 411.799)">
      <rect id="Rectangle_2" data-name="Rectangle 2" width="110.407" height="110.407" transform="matrix(0.725, -0.688, 0.688, 0.725, 0, 75.993)" fill="#ee9849"/>
      <rect id="Rectangle_3" data-name="Rectangle 3" width="22.236" height="110.407" transform="translate(63.961 15.305) rotate(-43.496)" fill="#e58638"/>
    </g>
    <g id="Group_2" data-name="Group 2" transform="translate(369.221 504.776)">
      <rect id="Rectangle_4" data-name="Rectangle 4" width="110.407" height="110.406" transform="translate(0 22.922) rotate(-11.983)" fill="#86d1cd"/>
      <rect id="Rectangle_5" data-name="Rectangle 5" width="110.406" height="22.236" transform="translate(0 22.922) rotate(-11.983)" fill="#76c0bf"/>
    </g>
    <g id="Group_4" data-name="Group 4" transform="translate(755.144 504.902)">
      <path id="Path_2" data-name="Path 2" d="M2126.515,899.593s-9.858-18.6,4.912-25.684c0,0,10.409-3.485,17.778-1.354,0,0-14.578,15.368-11.551,17.9s15.009-18.3,15.009-18.3,21.3,2.669,27.283,7.4c0,0-21.1,10.575-17.545,12.287s26.029-8.271,26.029-8.271,18.661,7.667,14.963,19.271-11.206,13.755-14.073,12.779-18.581-11.4-19.5-9.081,7.66,12.52,14.823,14.518c0,0-17.073,12.009-25.186,5.609s-7.335-13.476-12.42-17.339-9.925-4.946-8.179-1.779,11.425,8.04,13.376,14.5,3.989,10.983-5.1,7.451-22.829-13.854-21.727-21.887Z" transform="translate(-2095.365 -871.865)" fill="#599dad"/>
      <g id="Group_3" data-name="Group 3" transform="translate(0 22.542)">
        <path id="Path_3" data-name="Path 3" d="M2164.456,953.6s-52.244-13.888-67.273-1.434a39.071,39.071,0,0,1-13.808,12.367l-1.991,3.087s11.3-7.574,14.7-7.422C2096.081,960.2,2095.172,940.373,2164.456,953.6Z" transform="translate(-2066.033 -946.977)" fill="#599dad"/>
        <path id="Path_4" data-name="Path 4" d="M2047.576,1003.807s-13.194,5.82-17.343,20.591l2.012.646s7.09-14.643,14.98-19.218S2047.576,1003.807,2047.576,1003.807Z" transform="translate(-2030.233 -986.253)" fill="#599dad"/>
      </g>
    </g>
    <g id="Group_6" data-name="Group 6" transform="translate(706.464 380.949)">
      <path id="Path_5" data-name="Path 5" d="M1892.177,553.056s-35.852-18.7-20.194-45.988c0,0,12.675-16.849,26.655-21.5,0,0-6.332,40.191,1.219,40.907s3.828-45.292,3.828-45.292,36.613-18.974,51.231-18c0,0-21.877,39.712-14.382,38.547s32.179-41.431,32.179-41.431,37.875-8.187,44.66,14.2-2.753,33.966-8.353,35.544-41.819,2.187-40.739,6.861,25.754,11.469,39.264,6.831c0,0-13.94,37.593-33.743,36.3s-26.281-13.335-38.534-13.912-21.088,2.981-14.878,6.09,26.833.28,36.957,8.381,18.271,13.034.046,17.342-51.209,2.937-58.212-10.973Z" transform="translate(-1868.025 -458.84)" fill="#86d1cd"/>
      <g id="Group_5" data-name="Group 5" transform="translate(7.519 23.232)">
        <path id="Path_6" data-name="Path 6" d="M2036.963,536.251s-97.788,34.914-108.008,70.984c0,0,.946,15.972-8.382,34.6l.21,7.053s9.63-24.288,15.175-27.747C1935.958,621.145,1912.935,590.771,2036.963,536.251Z" transform="translate(-1912.323 -536.251)" fill="#6bb7bf"/>
        <path id="Path_7" data-name="Path 7" d="M1901.331,877.535s-14.539,23.577-5.019,51.466l3.886-1.169s-4.726-30.89,2.776-46.72S1901.331,877.535,1901.331,877.535Z" transform="translate(-1893.079 -771.947)" fill="#6bb7bf"/>
      </g>
    </g>
    <g id="Group_8" data-name="Group 8" transform="translate(518.811 598.614)">
      <path id="Path_8" data-name="Path 8" d="M1341.938,1213.184s-.337-30.233-23.833-29.026c0,0-15.524,2.751-23.356,10.5,0,0,28.942,9.376,26.864,14.654s-31.5-12.773-31.5-12.773-25.04,17.994-29.335,28.071c0,0,33.883-1.151,30.57,3.453s-38.514,7.439-38.514,7.439-18.275,22.485-5.643,34.584,23.58,9.656,26.528,6.456,15.608-27.145,18.359-24.843-1.067,21.054-8.73,28.493c0,0,29.784,3.425,35.623-10.218s0-22.036,3.761-30.4,9.123-13.053,9.1-7.86-8.892,17.987-6.917,27.479,2.509,16.594,11.548,5.9,19.286-33.153,12.38-42.529Z" transform="translate(-1242.746 -1184.123)" fill="#599dad"/>
      <g id="Group_7" data-name="Group 7" transform="translate(15.314 28.679)">
        <path id="Path_9" data-name="Path 9" d="M1293.773,1328.07s56.369-53.392,83.879-48c0,0,10.33,6.035,25.91,6.12l4.632,2.527s-19.453-1.8-23.636.729C1384.557,1289.443,1372.093,1263.814,1293.773,1328.07Z" transform="translate(-1293.773 -1279.685)" fill="#599dad"/>
        <path id="Path_10" data-name="Path 10" d="M1649.093,1301.223s20.641-1.717,36.016,14.068l-2.094,2.2s-19-13.6-32.093-13.957S1649.093,1301.223,1649.093,1301.223Z" transform="translate(-1539.304 -1294.721)" fill="#599dad"/>
      </g>
    </g>
    <g id="Group_10" data-name="Group 10" transform="translate(540.846 482.154)">
      <path id="Path_11" data-name="Path 11" d="M1379.94,843.171s17.926-9.349,10.1-22.994c0,0-6.338-8.424-13.328-10.75,0,0,3.166,20.1-.609,20.453s-1.914-22.646-1.914-22.646-18.306-9.487-25.615-9c0,0,10.938,19.856,7.191,19.274s-16.09-20.715-16.09-20.715-18.937-4.094-22.33,7.1,1.377,16.983,4.177,17.772,20.909,1.094,20.369,3.43-12.877,5.734-19.632,3.416c0,0,6.97,18.8,16.872,18.15s13.14-6.668,19.267-6.956,10.544,1.491,7.439,3.045-13.416.14-18.479,4.19-9.135,6.517-.023,8.671,25.6,1.468,29.106-5.486Z" transform="translate(-1316.17 -796.064)" fill="#86d1cd"/>
      <g id="Group_9" data-name="Group 9" transform="translate(9.766 11.616)">
        <path id="Path_12" data-name="Path 12" d="M1348.712,834.77s48.894,17.456,54,35.492a37.525,37.525,0,0,0,4.191,17.3l-.105,3.526s-4.815-12.144-7.587-13.874C1399.214,877.217,1410.726,862.03,1348.712,834.77Z" transform="translate(-1348.712 -834.77)" fill="#6bb7bf"/>
        <path id="Path_13" data-name="Path 13" d="M1537.261,1005.411s7.27,11.788,2.51,25.733l-1.943-.585s2.363-15.445-1.389-23.36S1537.261,1005.411,1537.261,1005.411Z" transform="translate(-1479.066 -952.617)" fill="#6bb7bf"/>
      </g>
    </g>
    <g id="Group_13" data-name="Group 13" transform="translate(632.096 395.407)">
      <g id="Group_11" data-name="Group 11" transform="translate(13.983 0)">
        <path id="Path_14" data-name="Path 14" d="M1670.186,531.163l-1.767-1.465a4.448,4.448,0,0,1-.584-6.256l12.29-14.822a4.448,4.448,0,0,1,6.256-.584l2.53,2.1a.869.869,0,0,1-1.11,1.339l-2.53-2.1a2.707,2.707,0,0,0-3.808.356l-12.289,14.822a2.707,2.707,0,0,0,.355,3.808l1.767,1.465a2.707,2.707,0,0,0,3.808-.356l8.158-9.839a.869.869,0,1,1,1.339,1.11l-8.158,9.839A4.448,4.448,0,0,1,1670.186,531.163Z" transform="translate(-1666.814 -507.015)" fill="#ee9849"/>
      </g>
      <g id="Group_12" data-name="Group 12" transform="translate(0 2.918)">
        <path id="Path_15" data-name="Path 15" d="M1625.782,553.749l-3.167-2.626a7.2,7.2,0,0,1-.6-10.134L1640.5,518.7a.869.869,0,1,1,1.339,1.109L1623.358,542.1a5.458,5.458,0,0,0,.367,7.686l3.167,2.626a5.458,5.458,0,0,0,7.621-1.063l21.046-25.383a5.459,5.459,0,0,0-.367-7.686.869.869,0,1,1,1.11-1.339,7.2,7.2,0,0,1,.6,10.134l-21.046,25.383A7.2,7.2,0,0,1,1625.782,553.749Z" transform="translate(-1620.223 -516.739)" fill="#ee9849"/>
      </g>
    </g>
    <g id="Group_16" data-name="Group 16" transform="translate(419.469 419.126)">
      <g id="Group_14" data-name="Group 14" transform="translate(0 0.818)">
        <path id="Path_16" data-name="Path 16" d="M930.415,613.478l-1.963,1.19a4.448,4.448,0,0,1-6.1-1.5l-9.98-16.466a4.448,4.448,0,0,1,1.5-6.1l2.811-1.7a.869.869,0,1,1,.9,1.487l-2.811,1.7a2.707,2.707,0,0,0-.911,3.714l9.98,16.466a2.707,2.707,0,0,0,3.714.911l1.963-1.19a2.707,2.707,0,0,0,.911-3.714L923.8,597.346a.869.869,0,0,1,1.487-.9l6.625,10.931A4.448,4.448,0,0,1,930.415,613.478Z" transform="translate(-911.729 -588.772)" fill="#86d1cd"/>
      </g>
      <g id="Group_15" data-name="Group 15" transform="translate(1.315 0)">
        <path id="Path_17" data-name="Path 17" d="M944.528,627.884l-3.518,2.132a7.2,7.2,0,0,1-9.77-2.757l-15-24.756a.869.869,0,1,1,1.487-.9l15,24.756a5.459,5.459,0,0,0,7.382,2.171l3.518-2.132a5.459,5.459,0,0,0,1.491-7.549l-17.09-28.2a5.459,5.459,0,0,0-7.382-2.171.869.869,0,1,1-.9-1.487,7.2,7.2,0,0,1,9.77,2.757l17.09,28.2A7.2,7.2,0,0,1,944.528,627.884Z" transform="translate(-916.11 -586.047)" fill="#86d1cd"/>
      </g>
    </g>
    <g id="Group_17" data-name="Group 17" transform="translate(732.284 577.926)">
      <rect id="Rectangle_6" data-name="Rectangle 6" width="173.297" height="168.87" rx="11.883" transform="translate(20.927)" fill="#e58638"/>
      <path id="Rectangle_7" data-name="Rectangle 7" d="M11.626,0H161.671A11.626,11.626,0,0,1,173.3,11.626v138.4a11.626,11.626,0,0,1-11.626,11.626H11.625A11.625,11.625,0,0,1,0,150.028V11.626A11.626,11.626,0,0,1,11.626,0Z" transform="translate(13.951 2.769)" fill="#f9ddbf"/>
      <path id="Rectangle_8" data-name="Rectangle 8" d="M11.883,0H161.413A11.884,11.884,0,0,1,173.3,11.884v145.1a11.884,11.884,0,0,1-11.884,11.884H11.884A11.884,11.884,0,0,1,0,156.985V11.883A11.883,11.883,0,0,1,11.883,0Z" transform="translate(0 0.001)" fill="#ee9849"/>
      <rect id="Rectangle_9" data-name="Rectangle 9" width="10.761" height="168.869" transform="translate(141.002 0.001)" fill="#c65447"/>
    </g>
    <g id="Group_21" data-name="Group 21" transform="translate(594.779 464.201)">
      <rect id="Rectangle_10" data-name="Rectangle 10" width="202.535" height="279.328" transform="translate(5.216 3.284)" fill="#dbaf8f"/>
      <rect id="Rectangle_11" data-name="Rectangle 11" width="202.535" height="279.328" transform="translate(0 3.284)" fill="#efcbab"/>
      <rect id="Rectangle_12" data-name="Rectangle 12" width="174.753" height="241.013" transform="translate(13.891 22.442)" fill="#ebf3fa"/>
      <path id="Rectangle_13" data-name="Rectangle 13" d="M12.547,0H64.391A12.546,12.546,0,0,1,76.937,12.546v5.592A12.546,12.546,0,0,1,64.391,30.684H12.546A12.546,12.546,0,0,1,0,18.138V12.547A12.547,12.547,0,0,1,12.547,0Z" transform="translate(62.799 0)" fill="#ee9849"/>
      <g id="Group_20" data-name="Group 20" transform="translate(13.891 33.371)">
        <g id="Group_18" data-name="Group 18">
          <rect id="Rectangle_14" data-name="Rectangle 14" width="174.753" height="0.737" fill="#d8e8fd"/>
          <rect id="Rectangle_15" data-name="Rectangle 15" width="174.753" height="0.737" transform="translate(0 12.666)" fill="#d8e8fd"/>
          <rect id="Rectangle_16" data-name="Rectangle 16" width="174.753" height="0.737" transform="translate(0 25.331)" fill="#d8e8fd"/>
          <rect id="Rectangle_17" data-name="Rectangle 17" width="174.753" height="0.737" transform="translate(0 37.997)" fill="#d8e8fd"/>
          <rect id="Rectangle_18" data-name="Rectangle 18" width="174.753" height="0.737" transform="translate(0 50.663)" fill="#d8e8fd"/>
          <rect id="Rectangle_19" data-name="Rectangle 19" width="174.753" height="0.737" transform="translate(0 63.329)" fill="#d8e8fd"/>
          <rect id="Rectangle_20" data-name="Rectangle 20" width="174.753" height="0.737" transform="translate(0 75.994)" fill="#d8e8fd"/>
          <rect id="Rectangle_21" data-name="Rectangle 21" width="174.753" height="0.737" transform="translate(0 88.66)" fill="#d8e8fd"/>
          <rect id="Rectangle_22" data-name="Rectangle 22" width="174.753" height="0.737" transform="translate(0 101.326)" fill="#d8e8fd"/>
        </g>
        <g id="Group_19" data-name="Group 19" transform="translate(0 115.11)">
          <rect id="Rectangle_23" data-name="Rectangle 23" width="174.753" height="0.737" fill="#d8e8fd"/>
          <rect id="Rectangle_24" data-name="Rectangle 24" width="174.753" height="0.737" transform="translate(0 12.666)" fill="#d8e8fd"/>
          <rect id="Rectangle_25" data-name="Rectangle 25" width="174.753" height="0.737" transform="translate(0 25.331)" fill="#d8e8fd"/>
          <rect id="Rectangle_26" data-name="Rectangle 26" width="174.753" height="0.737" transform="translate(0 37.997)" fill="#d8e8fd"/>
          <rect id="Rectangle_27" data-name="Rectangle 27" width="174.753" height="0.737" transform="translate(0 50.663)" fill="#d8e8fd"/>
          <rect id="Rectangle_28" data-name="Rectangle 28" width="174.753" height="0.737" transform="translate(0 63.329)" fill="#d8e8fd"/>
          <rect id="Rectangle_29" data-name="Rectangle 29" width="174.753" height="0.737" transform="translate(0 75.994)" fill="#d8e8fd"/>
          <rect id="Rectangle_30" data-name="Rectangle 30" width="174.753" height="0.737" transform="translate(0 88.66)" fill="#d8e8fd"/>
          <rect id="Rectangle_31" data-name="Rectangle 31" width="174.753" height="0.737" transform="translate(0 101.326)" fill="#d8e8fd"/>
        </g>
      </g>
    </g>
    <g id="Group_24" data-name="Group 24" transform="translate(292.455 559.972)">
      <path id="Path_18" data-name="Path 18" d="M795.1,1251.113c.93-.656,3.038-2.1,3.147-1.779a1.416,1.416,0,0,1-.287,1.034c1.275-.476,2.57-.789,5.632-.2a2.3,2.3,0,0,1,1.506.991,1.012,1.012,0,0,1-.352,1.58c-1.562.972-1.11.39-3.281,1.8s-4.83,1.776-6.419.783l-2.132-.355-.264-3.507S793.861,1251.32,795.1,1251.113Z" transform="translate(-701.37 -1191.089)" fill="#ffb27d"/>
      <path id="Path_19" data-name="Path 19" d="M614.677,1131.212s5.025,5.962,11.425,3.468a19.394,19.394,0,0,0,1.4-5.784c0-.3.006-.595.011-.873.034-2.764.127-4.315.127-4.315h-.007c-.291-.121-9.783-4.019-9.775-3.695C618.018,1127.487,614.677,1131.212,614.677,1131.212Z" transform="translate(-576.811 -1100.596)" fill="#ffb27d"/>
      <path id="Path_20" data-name="Path 20" d="M628.426,1125.832a14.848,14.848,0,0,0,8.7,6.229c.034-2.764.127-4.315.127-4.315h-.007C636.985,1127.674,628.153,1125.332,628.426,1125.832Z" transform="translate(-586.429 -1104.634)" fill="#ed975d"/>
      <path id="Path_21" data-name="Path 21" d="M632.408,1090.385s-10.675,2.51-12.135-4.162-3.822-10.841,2.932-12.725,8.64.37,9.669,2.479S635.147,1089.56,632.408,1090.385Z" transform="translate(-579.595 -1067.56)" fill="#ffb27d"/>
      <path id="Path_22" data-name="Path 22" d="M607.951,1075.841c-.146.093-2.443.8-6.793-7.867a7.547,7.547,0,0,1,.444-6.9c1.591-2.6,7.236-4.645,11.925-5.534s5.815,1.749,6.919,4.4c1.159,2.784,4.507,5.075,4.507,5.075-4.044,2.259-8.914-.972-10.6-.44s-2.283,3.19-2.41,4.042-.321,1.561-2.443.8-.959,3.007-.62,3.727C608.88,1073.142,609.168,1075.062,607.951,1075.841Z" transform="translate(-566.908 -1055.361)" fill="#a9453d"/>
      <g id="Group_22" data-name="Group 22" transform="translate(0 81.955)">
        <path id="Path_23" data-name="Path 23" d="M502.049,1640.762h-6.464c-1.355,0-2.861-1.357-3.238-3.841s-3.162-3.84-3.765-5.874,2.486-4.9,2.486-4.9l.516-.663.537-.692,5.12,1.2s.126,1.219.206,2.772a35.5,35.5,0,0,1,.021,3.554c-.151,2.712.759,5.631,3.168,6.158S502.049,1640.762,502.049,1640.762Z" transform="translate(-488.504 -1535.858)" fill="#2c3a64"/>
        <path id="Path_24" data-name="Path 24" d="M640.875,1656.24H623.741a1.545,1.545,0,0,1-.364-.105c-1.144-.573-.786-4.953-.648-6.305.026-.251.045-.4.045-.4s6.024-4.819,6.854-1.129c.026.115.056.228.089.339v0c1.046,3.452,5.721,5.021,8.422,5.457C640.2,1654.436,640.737,1655.639,640.875,1656.24Z" transform="translate(-582.333 -1551.336)" fill="#2c3a64"/>
        <path id="Path_25" data-name="Path 25" d="M612.444,1345.081s-.915,11.416-1.99,25.138c-1.462,18.641-3.219,41.538-3.393,45.876-.3,7.532-1.507,19.581-1.507,19.581s-2.86,2.862-8.585,1.656a197.091,197.091,0,0,1-6.558-35.4c-.023-.3-.045-.6-.068-.9-1.356-18.526-3.463-57.536-3.463-57.536Z" transform="translate(-557.356 -1338.981)" fill="#2b478b"/>
        <path id="Path_26" data-name="Path 26" d="M612.444,1345.081s-.915,11.416-1.99,25.138l-20.044,31.715c-.023-.3-.045-.6-.068-.9-1.356-18.526-3.463-57.536-3.463-57.536Z" transform="translate(-557.356 -1338.981)" fill="#233862"/>
        <path id="Path_27" data-name="Path 27" d="M545.391,1335.9s-16.492,41.344-27.336,60.773-14.233,24.852-14.233,24.852-6.213-2.485-6.777-4.18c0,0,4.147-37.509,11.409-46.653,4.1-5.167,8.924-20.672,9.15-26.094s1.468-16.154,1.468-16.154Z" transform="translate(-494.481 -1328.443)" fill="#2b478b"/>
      </g>
      <g id="Group_23" data-name="Group 23" transform="translate(7.759 31.277)">
        <path id="Path_28" data-name="Path 28" d="M519.9,1325.988l-.174,2.659a5.73,5.73,0,0,1-3.16,7.147s-2.1.848-2.189-.789.184-1.021.013-3.327.736-4.485,2.26-5.219l1.252-1.444Z" transform="translate(-514.358 -1275.365)" fill="#ffb27d"/>
        <path id="Path_29" data-name="Path 29" d="M521.128,1212.136c1.826.586,2.118.454,2.118.454s8.885-16.176,9.785-17.657,18.864-18.14,18.864-18.14l-4.617-17.215s-20.432,26.459-22.639,30.256c-3.646,6.274-5.782,20.845-5.782,20.845A5.342,5.342,0,0,0,521.128,1212.136Z" transform="translate(-517.507 -1159.578)" fill="#1e3d70"/>
      </g>
      <path id="Path_30" data-name="Path 30" d="M601.319,1174.851c-.064,3.535-.269,7.509-.547,11.546q-.025.359-.051.718c-.177,2.5-.369,5.007-.59,7.451q-.133,1.47-.281,2.9l-.015.128c-.008.356-.051.742-.091,1.095-.9,9.155-1.845,16.387-2.02,16.5a1.027,1.027,0,0,1-.7.179c-2.4-.3-9.564.243-15.428-1.033a44.471,44.471,0,0,1-13.725-5.691c-.6-.354-1.965-1.293-1.854-1.994.109-.771.311-1.885.567-3.284a177.77,177.77,0,0,0,2.95-23.049q.153-2.739.443-5.4a81.969,81.969,0,0,1,2.392-12.9c2.011-7.24,6.264-12.664,9.971-14.833.484-.271,1.792,1.267,4.185,2.8,2.211,1.417,4.306.771,6.569.573l2.224,3.241A22.247,22.247,0,0,1,601,1165.638q.079.587.136,1.251A77.822,77.822,0,0,1,601.319,1174.851Z" transform="translate(-542.749 -1119.6)" fill="#2a4e96"/>
      <path id="Path_31" data-name="Path 31" d="M645.365,1211.416c-.064,3.535-.269,7.509-.547,11.546l-.051.718c-13.714-8.583-15.826-24.291-15.826-24.291a37.509,37.509,0,0,1,16.237,4.065A77.827,77.827,0,0,1,645.365,1211.416Z" transform="translate(-586.795 -1156.165)" fill="#1e3d70"/>
      <path id="Path_32" data-name="Path 32" d="M666.2,1196.392c.141-2.033-.912-2.372-.912-2.372s-20.676-3.747-22.434-4.3-16.787-16.188-16.787-16.188-5.761-6.5-10.478-5.062c-4.1,1.247-5.7,4.444-6.247,7.49a8.973,8.973,0,0,0,4.166,9.211c7.056,4.328,21.182,12.855,24.509,13.83,7.4,2.171,27.3.174,27.3.174A6.423,6.423,0,0,0,666.2,1196.392Z" transform="translate(-572.979 -1134.38)" fill="#2a4e96"/>
    </g>
    <g id="Group_31" data-name="Group 31" transform="translate(379.645 650.679)">
      <rect id="Rectangle_32" data-name="Rectangle 32" width="164.277" height="96.135" transform="translate(3.494)" fill="#fcecdb"/>
      <g id="Group_30" data-name="Group 30" transform="translate(0 4.754)">
        <g id="Group_25" data-name="Group 25">
          <path id="Rectangle_33" data-name="Rectangle 33" d="M1.353,0H11.878A1.353,1.353,0,0,1,13.23,1.353v0A1.352,1.352,0,0,1,11.878,2.7H1.352A1.352,1.352,0,0,1,0,1.353v0A1.353,1.353,0,0,1,1.353,0Z" fill="#ee9849"/>
          <rect id="Rectangle_34" data-name="Rectangle 34" width="13.23" height="2.705" rx="1.352" transform="translate(0 5.168)" fill="#ee9849"/>
        </g>
        <g id="Group_26" data-name="Group 26" transform="translate(0 19.094)">
          <rect id="Rectangle_35" data-name="Rectangle 35" width="13.23" height="2.705" rx="1.352" fill="#ee9849"/>
          <path id="Rectangle_36" data-name="Rectangle 36" d="M1.352,0H11.878A1.352,1.352,0,0,1,13.23,1.352v0A1.352,1.352,0,0,1,11.878,2.7H1.352A1.352,1.352,0,0,1,0,1.353v0A1.352,1.352,0,0,1,1.352,0Z" transform="translate(0 5.168)" fill="#ee9849"/>
        </g>
        <g id="Group_27" data-name="Group 27" transform="translate(0 38.188)">
          <rect id="Rectangle_37" data-name="Rectangle 37" width="13.23" height="2.705" rx="1.352" fill="#ee9849"/>
          <path id="Rectangle_38" data-name="Rectangle 38" d="M1.353,0H11.878A1.352,1.352,0,0,1,13.23,1.352v0A1.352,1.352,0,0,1,11.878,2.7H1.352A1.352,1.352,0,0,1,0,1.353v0A1.353,1.353,0,0,1,1.353,0Z" transform="translate(0 5.168)" fill="#ee9849"/>
        </g>
        <g id="Group_28" data-name="Group 28" transform="translate(0 57.282)">
          <path id="Rectangle_39" data-name="Rectangle 39" d="M1.353,0H11.878A1.353,1.353,0,0,1,13.23,1.353v0A1.352,1.352,0,0,1,11.878,2.7H1.352A1.352,1.352,0,0,1,0,1.353v0A1.353,1.353,0,0,1,1.353,0Z" fill="#ee9849"/>
          <path id="Rectangle_40" data-name="Rectangle 40" d="M1.352,0H11.878A1.352,1.352,0,0,1,13.23,1.352v0A1.353,1.353,0,0,1,11.878,2.7H1.352A1.352,1.352,0,0,1,0,1.353v0A1.352,1.352,0,0,1,1.352,0Z" transform="translate(0 5.168)" fill="#ee9849"/>
        </g>
        <g id="Group_29" data-name="Group 29" transform="translate(0 76.377)">
          <rect id="Rectangle_41" data-name="Rectangle 41" width="13.23" height="2.705" rx="1.352" fill="#ee9849"/>
          <path id="Rectangle_42" data-name="Rectangle 42" d="M1.352,0H11.878A1.352,1.352,0,0,1,13.23,1.352v0A1.352,1.352,0,0,1,11.878,2.7H1.352A1.352,1.352,0,0,1,0,1.352v0A1.352,1.352,0,0,1,1.352,0Z" transform="translate(0 5.168)" fill="#ee9849"/>
        </g>
      </g>
    </g>
    <g id="Group_32" data-name="Group 32" transform="translate(490.619 636.407)">
      <path id="Path_33" data-name="Path 33" d="M1259.215,1310.053v110.406H1148.809V1310.053Z" transform="translate(-1148.809 -1310.053)" fill="#ffa412"/>
      <path id="Path_34" data-name="Path 34" d="M1303.964,1310.053v20.865s.618,38.642,2,51.844c2.608,24.923,10.239,37.7,10.239,37.7H1205.5s-9.37-13.933-11.943-36.054c-1.545-13.282,0-53.487,0-53.487v-20.865Z" transform="translate(-1179.647 -1310.053)" fill="#ffb93e"/>
      <rect id="Rectangle_43" data-name="Rectangle 43" width="110.407" height="20.865" transform="translate(13.91)" fill="#ffaf28"/>
    </g>
    <rect id="Rectangle_44" data-name="Rectangle 44" width="785.272" height="2.053" rx="1.026" transform="translate(208.39 746.561)" fill="#2e3552" opacity="0.22"/>
    <g id="Group_35" data-name="Group 35" transform="translate(643.958 559.469)">
      <path id="Path_35" data-name="Path 35" d="M1712.372,1162.123l-1.249-2.357s.62-4.2-4.644-6.858a2.569,2.569,0,0,0-3.01.786c-1,1.445,1.906,1.184,1.75,3.657a4.548,4.548,0,0,0,2.651,4.729l1.35,1.564Z" transform="translate(-1690.201 -1122.993)" fill="#ffb27d"/>
      <path id="Path_36" data-name="Path 36" d="M1771.577,1163.394s-4.521,22.187-29.4,29.436c-7.765,2.263-25.407-23.3-25.407-23.3s.62-2.357,4.506-1.815c0,0,17.177,11.372,19.339,12.607,1.919,1.1,14.538-14.091,20.291-16.541A14.683,14.683,0,0,1,1771.577,1163.394Z" transform="translate(-1699.66 -1129.9)" fill="#233862"/>
      <g id="Group_33" data-name="Group 33" transform="translate(0 29.131)">
        <rect id="Rectangle_45" data-name="Rectangle 45" width="4.646" height="23.372" transform="translate(5.018 4.592) rotate(-81.267)" fill="#c65447"/>
        <path id="Path_37" data-name="Path 37" d="M1659.748,1152.224l5.018,3.121.705-4.592Z" transform="translate(-1659.748 -1150.753)" fill="#ffb27d"/>
        <path id="Rectangle_46" data-name="Rectangle 46" d="M0,0H4.646a0,0,0,0,1,0,0V.463A2.254,2.254,0,0,1,2.392,2.717h0A2.392,2.392,0,0,1,0,.325V0A0,0,0,0,1,0,0Z" transform="matrix(0.152, -0.988, 0.988, 0.152, 28.119, 8.141)" fill="#ffb27d"/>
      </g>
      <g id="Group_34" data-name="Group 34" transform="translate(45.616 83.711)">
        <path id="Path_38" data-name="Path 38" d="M1972.268,1626.919s3.086,2.816,2.484,4.817-3.387,3.335-3.763,5.781-1.882,3.78-3.236,3.78h-6.459s-1-1.721,1.411-2.24,3.316-3.393,3.166-6.061a47.055,47.055,0,0,1,.226-6.226l5.118-1.186Z" transform="translate(-1916.269 -1537.663)" fill="#233862"/>
        <path id="Path_39" data-name="Path 39" d="M1829.885,1648.517s.554,6.409-.8,7.076l-17.339-.036s0-2,2.785-2.446,7.677-2.075,8.505-5.706S1829.885,1648.517,1829.885,1648.517Z" transform="translate(-1811.745 -1551.976)" fill="#233862"/>
        <path id="Path_40" data-name="Path 40" d="M1823.411,1348.992s.914,11.235,1.989,24.74c1.461,18.345,3.218,40.879,3.392,45.148.3,7.413,1.506,19.27,1.506,19.27s2.859,2.817,8.581,1.63a191.362,191.362,0,0,0,6.555-34.836c.022-.293.045-.589.068-.885,1.355-18.232,3.461-56.623,3.461-56.623Z" transform="translate(-1819.91 -1342.989)" fill="#ee9849"/>
        <path id="Path_41" data-name="Path 41" d="M1823.411,1348.992s.914,11.235,1.989,24.74l20.034,31.212c.022-.293.045-.589.068-.885,1.355-18.232,3.461-56.623,3.461-56.623Z" transform="translate(-1819.91 -1342.989)" fill="#e58638"/>
        <path id="Path_42" data-name="Path 42" d="M1837.327,1339.956s16.484,40.688,27.322,59.809,14.226,24.457,14.226,24.457,6.209-2.446,6.774-4.113c0,0-4.145-36.914-11.4-45.913-4.1-5.085-8.919-20.344-9.145-25.68s-1.468-15.9-1.468-15.9Z" transform="translate(-1829.65 -1332.619)" fill="#ee9849"/>
      </g>
      <path id="Path_43" data-name="Path 43" d="M1868.588,1116.617S1857.435,1122,1851,1120a15.171,15.171,0,0,1,4.353-3.482c-.222-1.291-.4-2.411-.495-3.36a31.043,31.043,0,0,1-.272-3.434l4.3-3.384,4.08-3.239C1862.653,1112.21,1868.588,1116.617,1868.588,1116.617Z" transform="translate(-1793.607 -1088.272)" fill="#ffb27d"/>
      <path id="Path_44" data-name="Path 44" d="M1820.544,1204.532a1.007,1.007,0,0,0,.67.267c2.422-.049,9.471,1.289,15.429.681a45.573,45.573,0,0,0,14.27-4.04c.643-.293,2.1-1.072,2.078-1.753-.026-.779-.1-1.875-.2-3.289-.2-2.782-.481-6.732-.571-11.415-.066-3.472-.029-7.346.223-11.45.015-.275.029-.553.041-.832.072-1.5.107-3.02.107-4.5a78.1,78.1,0,0,0-1.011-13.391c-1.214-7.062-3.489-12.589-6.851-15.049-.446-.342-3.216,1-5.787,2.24a10.693,10.693,0,0,1-6.923.829l-2.226,1.948a21.973,21.973,0,0,0-6.975,10.957c-1.087,4.335-1.73,12.175-2.078,20.309-.171,3.7-.3,7.4-.345,10.931v.122c-.026.365-.026.733-.026,1.1C1820.249,1197.226,1820.37,1204.41,1820.544,1204.532Z" transform="translate(-1772.132 -1113.89)" fill="#2b478b"/>
      <path id="Path_45" data-name="Path 45" d="M1871.411,1114.138s-2.819,5.138-8.186,6.575a31.045,31.045,0,0,1-.272-3.434l4.3-3.384Z" transform="translate(-1801.969 -1095.825)" fill="#ed985f"/>
      <path id="Path_46" data-name="Path 46" d="M1851.574,1084.257s10.64,1.741,11.638-4.8,3.045-10.721-3.706-12.109-8.455.912-9.328,3.016S1848.832,1083.636,1851.574,1084.257Z" transform="translate(-1792.552 -1062.952)" fill="#ffb27d"/>
      <path id="Path_47" data-name="Path 47" d="M1859.06,1057.3c.1-.111.32-.2.815-.227a2.008,2.008,0,0,0-.926-.261,2.493,2.493,0,0,0-1.657-2.206,1.487,1.487,0,0,1,.721,1.073c-1.374-1.411-4.319-2.439-12.473-1.795-10.746.848-7.2,7.729-5.813,8.549s4.893-1.428,7.485-1.223,3.085,3.951,3.964,4.465.534-.395,1.724-.932,1.3,1.434.959,2.715,1.291,2.973,1.291,2.973l1.652-1.779c1.652-1.779,3.209-9.315,2.458-10.921C1859.193,1057.586,1859.128,1057.443,1859.06,1057.3Z" transform="translate(-1784.533 -1053.685)" fill="#2c3a64"/>
      <path id="Path_48" data-name="Path 48" d="M1721.726,1165.824s.366-1.446-.637-2.1-1.926-2.418-2.349-2.178c-.876.5.479,2.038.231,3.962C1718.885,1166.186,1720.453,1167.951,1721.726,1165.824Z" transform="translate(-1700.827 -1129.163)" fill="#ffb27d"/>
      <path id="Path_49" data-name="Path 49" d="M1911.421,1239.54c-.066-3.472-.029-7.346.223-11.45.015-.275.029-.553.041-.832-1.011-5.011-2.542-9.456-4.793-9.6C1906.892,1217.657,1900.183,1228.2,1911.421,1239.54Z" transform="translate(-1831.331 -1168.447)" fill="#233862"/>
      <path id="Path_50" data-name="Path 50" d="M1940.214,1348.551s-.559,5.437-1.173,6.465-3.226,4.315-4.339,4.96.68-4.33.453-5.3-.916,1.766-1.406,1.831-.364-2.4-.382-3.293,2.386-3.107,3.234-5.014S1940.214,1348.551,1940.214,1348.551Z" transform="translate(-1851.25 -1259.278)" fill="#ffb27d"/>
      <path id="Path_51" data-name="Path 51" d="M1889.756,1139.7s6.732,3.188,9.959,8.088c5.007,7.6,10.81,35.306,10.917,37.872s-4.236,20.677-4.236,20.677-4.405-.29-5.541-2.513c0,0,.88-18.61.322-19.806s-18.363-24.963-16.361-30.035S1889.756,1139.7,1889.756,1139.7Z" transform="translate(-1817.162 -1113.89)" fill="#2b478b"/>
    </g>
  </g>
</svg>
