<svg xmlns="http://www.w3.org/2000/svg" width="31.721" height="31.721" viewBox="0 0 31.721 31.721">
  <g id="Icon_feather-instagram" data-name="Icon feather-instagram" transform="translate(-1.5 -1.5)">
    <path id="Path_6835" data-name="Path 6835" d="M10.18,3h14.36a7.18,7.18,0,0,1,7.18,7.18v14.36a7.18,7.18,0,0,1-7.18,7.18H10.18A7.18,7.18,0,0,1,3,24.541V10.18A7.18,7.18,0,0,1,10.18,3Z" fill="none" stroke="#888" stroke-linecap="round" stroke-linejoin="round" stroke-width="3"/>
    <path id="Path_6836" data-name="Path 6836" d="M23.491,16.837A5.744,5.744,0,1,1,18.652,12,5.744,5.744,0,0,1,23.491,16.837Z" transform="translate(-0.386 -0.381)" fill="none" stroke="#888" stroke-linecap="round" stroke-linejoin="round" stroke-width="3"/>
    <path id="Path_6837" data-name="Path 6837" d="M26.25,9.75h0" transform="translate(-0.991 -0.288)" fill="none" stroke="#888" stroke-linecap="round" stroke-linejoin="round" stroke-width="3"/>
  </g>
</svg>
