<svg id="Capa_1" enable-background="new 0 0 512 512" height="512" viewBox="0 0 512 512" width="512" xmlns="http://www.w3.org/2000/svg"><g><path d="m450.187 355.997c-31.263-42.482-75.083-72.714-125.723-87.359 5.784-4.972 11.024-10.56 15.613-16.664v.026h14.5c61.425.19 93.319-74.47 51.5-118.574v-52.518c0-44.613-36.295-80.908-80.908-80.908h-138.184c-44.613 0-80.908 36.295-80.908 80.908v52.518c-41.829 44.134-9.908 118.761 51.501 118.574-.001 0 14.499 0 14.499 0v-.113c4.601 6.132 9.857 11.744 15.662 16.736-107.006 29.93-178.43 132.938-172.162 243.377h481c2.291-55.967-12.66-110.942-46.39-156.003zm-194.077-91.997c-24.484 0-46.262-11.796-59.959-30h51.926v-30h-65.457c-2.328-9.396-1.307-29.135-1.509-39 0-8.678 1.499-17.01 4.222-24.769 23.85 14.362 70.036 33.872 145.778 34.737v14.032c-.001 41.355-33.645 75-75.001 75zm30.164 25.578-30.277 38.327-30.902-38.582c19.157 6.108 41.95 6.206 61.179.255zm-85.565-175.077c39.072-43.611 112.47-25.747 127.648 30.415-62.45-2.231-95.125-12.22-127.648-30.415zm155.094 107.468c3.439-10.373 5.307-21.456 5.307-32.969v-24c0-8.189-.944-16.161-2.726-23.815 50.132 6.348 47.983 77.594-2.581 80.784zm-168.818-191.969h138.184c28.071 0 50.908 22.837 50.908 50.908v33.456c-6.782-2.177-14.004-3.364-21.5-3.364h-8.45c-39.993-67.65-140.068-67.615-180.034 0h-8.516c-7.496 0-14.718 1.187-21.5 3.364v-33.456c0-28.071 22.837-50.908 50.908-50.908zm-69.908 151.5c0-21.071 16.176-38.426 36.76-40.321-1.783 7.656-2.727 15.63-2.727 23.821v24c0 11.513 1.868 22.597 5.308 32.971-21.796-.617-39.341-18.528-39.341-40.471zm-70.969 300.5c5.034-84.119 66.417-160.683 147.633-183.833l62.417 77.928 61.698-78.1c81.47 22.989 143.153 99.678 148.19 184.004h-419.938z"/><path d="m125.077 396h70v30h-70z"/><path d="m355.077 378h-30v40h-28v30h87v-30h-29z"/></g></svg>