<?xml version="1.0"?>
<svg xmlns="http://www.w3.org/2000/svg" xmlns:xlink="http://www.w3.org/1999/xlink" xmlns:svgjs="http://svgjs.com/svgjs" version="1.1" width="512" height="512" x="0" y="0" viewBox="0 0 512 512" style="enable-background:new 0 0 512 512" xml:space="preserve" class=""><g><path xmlns="http://www.w3.org/2000/svg" d="m472 16h-432a24.0275 24.0275 0 0 0 -24 24v432a24.0275 24.0275 0 0 0 24 24h432a24.0275 24.0275 0 0 0 24-24v-432a24.0275 24.0275 0 0 0 -24-24zm8 456a8.00917 8.00917 0 0 1 -8 8h-432a8.00917 8.00917 0 0 1 -8-8v-432a8.00917 8.00917 0 0 1 8-8h432a8.00917 8.00917 0 0 1 8 8z" fill="#ffffff" data-original="#000000" style="" class=""/><circle xmlns="http://www.w3.org/2000/svg" cx="56" cy="56" r="8" fill="#ffffff" data-original="#000000" style="" class=""/><circle xmlns="http://www.w3.org/2000/svg" cx="80" cy="56" r="8" fill="#ffffff" data-original="#000000" style="" class=""/><circle xmlns="http://www.w3.org/2000/svg" cx="104" cy="56" r="8" fill="#ffffff" data-original="#000000" style="" class=""/><path xmlns="http://www.w3.org/2000/svg" d="m248 216h-32a7.99977 7.99977 0 0 0 -8 8v32a7.99977 7.99977 0 0 0 8 8h32a7.99977 7.99977 0 0 0 8-8v-32a7.99977 7.99977 0 0 0 -8-8zm-8 32h-16v-16h16z" fill="#ffffff" data-original="#000000" style="" class=""/><path xmlns="http://www.w3.org/2000/svg" d="m280 232h24v16h-24z" fill="#ffffff" data-original="#000000" style="" class=""/><path xmlns="http://www.w3.org/2000/svg" d="m320 232h112v16h-112z" fill="#ffffff" data-original="#000000" style="" class=""/><path xmlns="http://www.w3.org/2000/svg" d="m248 280h-32a7.99977 7.99977 0 0 0 -8 8v32a7.99977 7.99977 0 0 0 8 8h32a7.99977 7.99977 0 0 0 8-8v-32a7.99977 7.99977 0 0 0 -8-8zm-8 32h-16v-16h16z" fill="#ffffff" data-original="#000000" style="" class=""/><path xmlns="http://www.w3.org/2000/svg" d="m280 296h24v16h-24z" fill="#ffffff" data-original="#000000" style="" class=""/><path xmlns="http://www.w3.org/2000/svg" d="m320 296h112v16h-112z" fill="#ffffff" data-original="#000000" style="" class=""/><path xmlns="http://www.w3.org/2000/svg" d="m248 344h-32a7.99977 7.99977 0 0 0 -8 8v32a7.99977 7.99977 0 0 0 8 8h32a7.99977 7.99977 0 0 0 8-8v-32a7.99977 7.99977 0 0 0 -8-8zm-8 32h-16v-16h16z" fill="#ffffff" data-original="#000000" style="" class=""/><path xmlns="http://www.w3.org/2000/svg" d="m280 360h24v16h-24z" fill="#ffffff" data-original="#000000" style="" class=""/><path xmlns="http://www.w3.org/2000/svg" d="m320 360h112v16h-112z" fill="#ffffff" data-original="#000000" style="" class=""/><path xmlns="http://www.w3.org/2000/svg" d="m248 408h-32a7.99977 7.99977 0 0 0 -8 8v32a7.99977 7.99977 0 0 0 8 8h32a7.99977 7.99977 0 0 0 8-8v-32a7.99977 7.99977 0 0 0 -8-8zm-8 32h-16v-16h16z" fill="#ffffff" data-original="#000000" style="" class=""/><path xmlns="http://www.w3.org/2000/svg" d="m280 424h24v16h-24z" fill="#ffffff" data-original="#000000" style="" class=""/><path xmlns="http://www.w3.org/2000/svg" d="m320 424h112v16h-112z" fill="#ffffff" data-original="#000000" style="" class=""/><path xmlns="http://www.w3.org/2000/svg" d="m448 96h-384a7.99977 7.99977 0 0 0 -8 8v344a7.99977 7.99977 0 0 0 8 8h112a7.99977 7.99977 0 0 0 8-8v-256h264a7.99977 7.99977 0 0 0 8-8v-80a7.99977 7.99977 0 0 0 -8-8zm-280 344h-96v-248h96zm272-264h-368v-64h368z" fill="#ffffff" data-original="#000000" style="" class=""/></g></svg>
